# xmcd CD database file
#
# Track frame offsets:
#	150
#	25770
#	41362
#
# Disc length: 890 seconds
#
# Revision: 0
# Processed by: cddbd v1.5.1PL0 Copyright (c) Steve Scherf et al.
# Submitted via: CDex 1.51
#
DISCID=17037803
DTITLE=キッスの世界 - バクバクKiss
DYEAR=2000
DGENRE=JPop
TTITLE0=バクバクKiss
TTITLE1=恋のタイトルマッチ
TTITLE2=バクバクKiss (instrumental)
EXTD=YEAR: 2000
EXTT0=
EXTT1=
EXTT2=
PLAYORDER=
